<svg xmlns="http://www.w3.org/2000/svg" viewBox="0 0 64 64" fill="#FFFFFF">
  <path d="M62.917 38.962C59.376 53.71 47.207 64 31.833 64a31.93 31.93 0 01-21.915-8.832l-5.376 5.376a2.65 2.65 0 01-1.874.789A2.685 2.685 0 010 58.668V40a2.687 2.687 0 012.667-2.667h18.666A2.687 2.687 0 0124 40a2.645 2.645 0 01-.793 1.877L17.5 47.58a21.244 21.244 0 0032.665-4.414 33.706 33.706 0 002.208-4.873 1.292 1.292 0 011.25-.96h8a1.342 1.342 0 011.333 1.337.738.738 0 01-.041.293M64 24a2.687 2.687 0 01-2.667 2.668H42.667A2.687 2.687 0 0140 24a2.654 2.654 0 01.793-1.877l5.749-5.746a21.336 21.336 0 00-32.706 4.457 33.224 33.224 0 00-2.208 4.873 1.293 1.293 0 01-1.25.96H2.085A1.342 1.342 0 01.752 25.33v-.293C4.334 10.247 16.626 0 32 0a32.355 32.355 0 0122.041 8.832l5.419-5.376a2.644 2.644 0 011.872-.789A2.685 2.685 0 0164 5.333z"></path>
</svg>